<svg width="24" height="24" viewBox="0 0 24 24" fill="none" xmlns="http://www.w3.org/2000/svg">
<path d="M12 2C13.1046 2 14 2.89543 14 4V5C15.6569 5 17 6.34315 17 8C17 9.65685 15.6569 11 14 11H10C8.34315 11 7 9.65685 7 8C7 6.34315 8.34315 5 10 5V4C10 2.89543 10.8954 2 12 2Z" stroke="currentColor" stroke-width="2" stroke-linecap="round" stroke-linejoin="round"/>
<path d="M7 11V13C7 14.1046 7.89543 15 9 15H15C16.1046 15 17 14.1046 17 13V11" stroke="currentColor" stroke-width="2" stroke-linecap="round" stroke-linejoin="round"/>
<path d="M12 15V22M12 22C10.8954 22 10 21.1046 10 20M12 22C13.1046 22 14 21.1046 14 20" stroke="currentColor" stroke-width="2" stroke-linecap="round" stroke-linejoin="round"/>
</svg>
