<svg width="24" height="24" viewBox="0 0 24 24" fill="none" xmlns="http://www.w3.org/2000/svg">
<path d="M12 15.5C13.933 15.5 15.5 13.933 15.5 12C15.5 10.067 13.933 8.5 12 8.5C10.067 8.5 8.5 10.067 8.5 12C8.5 13.933 10.067 15.5 12 15.5Z" stroke="currentColor" stroke-width="2" stroke-linecap="round" stroke-linejoin="round"/>
<path d="M19.4 15C19.2665 15.3017 19.2273 15.6364 19.29 15.96C19.3527 16.2836 19.5142 16.5796 19.75 16.81L20.72 17.78C20.862 17.922 20.938 18.117 20.938 18.32C20.938 18.523 20.862 18.718 20.72 18.86L19.75 19.83C19.608 19.972 19.413 20.048 19.21 20.048C19.007 20.048 18.812 19.972 18.67 19.83L17.7 18.86C17.416 18.576 17.416 18.104 17.7 17.82L18.67 16.85C18.812 16.708 19.007 16.632 19.21 16.632C19.413 16.632 19.608 16.708 19.75 16.85L20.72 17.82C20.862 17.964 20.938 18.159 20.938 18.362C20.938 18.565 20.862 18.76 20.72 18.902L19.75 19.875C19.608 20.017 19.413 20.093 19.21 20.093C19.007 20.093 18.812 20.017 18.67 19.875L18.67 18.875C18.386 18.591 18.386 18.119 18.67 17.835L19.64 16.865C19.924 16.581 20.396 16.581 20.68 16.865L19.4 15Z" fill="currentColor"/>
<path d="M4.6 9C4.7335 8.6983 4.7727 8.3636 4.71 8.04C4.6473 7.7164 4.4858 7.4204 4.25 7.19L3.28 6.22C3.138 6.078 2.943 6.002 2.74 6.002C2.537 6.002 2.342 6.078 2.2 6.22L1.23 7.19C1.088 7.332 1.012 7.527 1.012 7.73C1.012 7.933 1.088 8.128 1.23 8.27L2.2 9.24C2.484 9.524 2.956 9.524 3.24 9.24L2.2 8.27C2.342 8.128 2.537 8.052 2.74 8.052C2.943 8.052 3.138 8.128 3.28 8.27L4.25 9.24C4.534 9.524 5.006 9.524 5.29 9.24L4.6 9Z" fill="currentColor"/>
</svg>
